{
  "source": "C:\\Users\\Peter\\Desktop\\stuff\\MIUN\\quantitative_research\\video_compression\\videos\\BVI-HD\\BVI-HD_CDVL_videos\\ORIG\\CalmingWater_1920x1080_60fps.mp4",
  "output": "C:\\Users\\Peter\\Desktop\\stuff\\MIUN\\quantitative_research\\video_compression\\compressed_videos\\BVI-HD\\h264\\1\\CalmingWater_1920x1080_60fps_h264.mp4",
  "codec": "h264",
  "ok": "Input #0, mov,mp4,m4a,3gp,3g2,mj2, from 'C:\\Users\\Peter\\Desktop\\stuff\\MIUN\\quantitative_research\\video_compression\\videos\\BVI-HD\\BVI-HD_CDVL_videos\\ORIG\\CalmingWater_1920x1080_60fps.mp4':\n  Metadata:\n    major_brand     : isom\n    minor_version   : 512\n    compatible_brands: isomiso2avc1mp41\n    encoder         : Lavf54.28.101\n  Duration: 00:00:05.00, start: 0.000000, bitrate: 623787 kb/s\n  Stream #0:0[0x1](und): Video: h264 (High 4:4:4 Predictive) (avc1 / 0x31637661), yuv420p(progressive), 1920x1080, 623782 kb/s, 60 fps, 60 tbr, 60 tbn (default)\n    Metadata:\n      handler_name    : VideoHandler\n      vendor_id       : [0][0][0][0]\n[out#0/mp4 @ 000001e5f4cd9b40] Codec AVOption b:a (set bitrate (in bits/s)) has not been used for any stream. The most likely reason is either wrong type (e.g. a video option with no video streams) or that it is a private option of some decoder which was not actually used for any stream.\nStream mapping:\n  Stream #0:0 -> #0:0 (h264 (native) -> h264 (libx264))\nPress [q] to stop, [?] for help\n[libx264 @ 000001e5f57b0300] using cpu capabilities: MMX2 SSE2Fast SSSE3 SSE4.2 AVX FMA3 BMI2 AVX2\n[libx264 @ 000001e5f57b0300] profile High, level 5.0, 4:2:0, 8-bit\n[libx264 @ 000001e5f57b0300] 264 - core 165 r3222 b35605a - H.264/MPEG-4 AVC codec - Copyleft 2003-2025 - http://www.videolan.org/x264.html - options: cabac=1 ref=5 deblock=1:0:0 analyse=0x3:0x113 me=hex subme=8 psy=1 psy_rd=1.00:0.00 mixed_ref=1 me_range=16 chroma_me=1 trellis=2 8x8dct=1 cqm=0 deadzone=21,11 fast_pskip=1 chroma_qp_offset=-2 threads=18 lookahead_threads=3 sliced_threads=0 nr=0 decimate=1 interlaced=0 bluray_compat=0 constrained_intra=0 bframes=3 b_pyramid=2 b_adapt=1 b_bias=0 direct=3 weightb=1 open_gop=0 weightp=2 keyint=250 keyint_min=25 scenecut=40 intra_refresh=0 rc_lookahead=50 rc=cbr mbtree=1 bitrate=1000 ratetol=1.0 qcomp=0.60 qpmin=0 qpmax=69 qpstep=4 vbv_maxrate=1000 vbv_bufsize=1000 nal_hrd=none filler=0 ip_ratio=1.40 aq=1:1.00\nOutput #0, mp4, to 'C:\\Users\\Peter\\Desktop\\stuff\\MIUN\\quantitative_research\\video_compression\\compressed_videos\\BVI-HD\\h264\\1\\CalmingWater_1920x1080_60fps_h264.mp4':\n  Metadata:\n    major_brand     : isom\n    minor_version   : 512\n    compatible_brands: isomiso2avc1mp41\n    encoder         : Lavf62.3.100\n  Stream #0:0(und): Video: h264 (avc1 / 0x31637661), yuv420p(tv, progressive), 1920x1080, q=2-31, 1000 kb/s, 60 fps, 15360 tbn (default)\n    Metadata:\n      encoder         : Lavc62.11.100 libx264\n      handler_name    : VideoHandler\n      vendor_id       : [0][0][0][0]\n    Side data:\n      cpb: bitrate max/min/avg: 1000000/0/1000000 buffer size: 1000000 vbv_delay: N/A\nframe=    0 fps=0.0 q=0.0 size=       0KiB time=N/A bitrate=N/A speed=N/A elapsed=0:00:00.53    \nframe=    0 fps=0.0 q=0.0 size=       0KiB time=N/A bitrate=N/A speed=N/A elapsed=0:00:01.41    \nframe=    0 fps=0.0 q=0.0 size=       0KiB time=N/A bitrate=N/A speed=N/A elapsed=0:00:01.97    \nframe=    0 fps=0.0 q=0.0 size=       0KiB time=N/A bitrate=N/A speed=N/A elapsed=0:00:02.49    \nframe=    4 fps=1.3 q=61.0 size=       0KiB time=00:00:00.03 bitrate=  11.5kbits/s speed=0.0111x elapsed=0:00:03.00    \nframe=   17 fps=4.8 q=59.0 size=       0KiB time=00:00:00.23 bitrate=   1.6kbits/s speed=0.0658x elapsed=0:00:03.54    \nframe=   28 fps=6.8 q=61.0 size=       0KiB time=00:00:00.43 bitrate=   0.9kbits/s speed=0.106x elapsed=0:00:04.09    \nframe=   40 fps=8.6 q=62.0 size=       0KiB time=00:00:00.61 bitrate=   0.6kbits/s speed=0.133x elapsed=0:00:04.62    \nframe=   51 fps=9.8 q=63.0 size=       0KiB time=00:00:00.81 bitrate=   0.5kbits/s speed=0.157x elapsed=0:00:05.18    \nframe=   61 fps= 11 q=63.0 size=       0KiB time=00:00:00.98 bitrate=   0.4kbits/s speed=0.172x elapsed=0:00:05.72    \nframe=   71 fps= 11 q=64.0 size=       0KiB time=00:00:01.15 bitrate=   0.3kbits/s speed=0.183x elapsed=0:00:06.28    \nframe=   80 fps= 12 q=64.0 size=       0KiB time=00:00:01.28 bitrate=   0.3kbits/s speed=0.188x elapsed=0:00:06.83    \nframe=   90 fps= 12 q=64.0 size=       0KiB time=00:00:01.45 bitrate=   0.3kbits/s speed=0.195x elapsed=0:00:07.42    \nframe=  100 fps= 12 q=63.0 size=       0KiB time=00:00:01.61 bitrate=   0.2kbits/s speed=0.201x elapsed=0:00:08.03    \nframe=  109 fps= 13 q=63.0 size=     256KiB time=00:00:01.76 bitrate=1187.3kbits/s speed=0.205x elapsed=0:00:08.62    \nframe=  118 fps= 13 q=63.0 size=     256KiB time=00:00:01.91 bitrate=1094.4kbits/s speed=0.209x elapsed=0:00:09.18    \nframe=  129 fps= 13 q=63.0 size=     256KiB time=00:00:02.10 bitrate= 998.8kbits/s speed=0.215x elapsed=0:00:09.74    \nframe=  139 fps= 13 q=63.0 size=     256KiB time=00:00:02.26 bitrate= 925.4kbits/s speed=0.22x elapsed=0:00:10.30    \nframe=  151 fps= 14 q=63.0 size=     256KiB time=00:00:02.48 bitrate= 844.6kbits/s speed=0.228x elapsed=0:00:10.88    \nframe=  161 fps= 14 q=63.0 size=     256KiB time=00:00:02.63 bitrate= 796.5kbits/s speed=0.23x elapsed=0:00:11.44    \nframe=  171 fps= 14 q=63.0 size=     256KiB time=00:00:02.80 bitrate= 749.1kbits/s speed=0.233x elapsed=0:00:12.03    \nframe=  180 fps= 14 q=63.0 size=     256KiB time=00:00:02.96 bitrate= 707.0kbits/s speed=0.235x elapsed=0:00:12.60    \nframe=  193 fps= 15 q=63.0 size=     256KiB time=00:00:03.18 bitrate= 658.9kbits/s speed=0.242x elapsed=0:00:13.13    \nframe=  203 fps= 15 q=63.0 size=     256KiB time=00:00:03.35 bitrate= 626.1kbits/s speed=0.245x elapsed=0:00:13.65    \nframe=  214 fps= 15 q=63.0 size=     256KiB time=00:00:03.51 bitrate= 596.5kbits/s speed=0.248x elapsed=0:00:14.19    \nframe=  228 fps= 15 q=62.0 size=     256KiB time=00:00:03.75 bitrate= 559.3kbits/s speed=0.253x elapsed=0:00:14.79    \nframe=  266 fps= 17 q=58.0 size=     512KiB time=00:00:04.40 bitrate= 953.3kbits/s speed=0.286x elapsed=0:00:15.36    \nframe=  298 fps= 19 q=-1.0 size=     512KiB time=00:00:04.88 bitrate= 859.0kbits/s speed=0.306x elapsed=0:00:15.93    \n[mp4 @ 000001e5f4d67ac0] Starting second pass: moving the moov atom to the beginning of the file\n[out#0/mp4 @ 000001e5f4cd9b40] video:603KiB audio:0KiB subtitle:0KiB other streams:0KiB global headers:0KiB muxing overhead: 0.417034%\nframe=  300 fps= 19 q=-1.0 Lsize=     605KiB time=00:00:04.96 bitrate= 998.7kbits/s speed=0.311x elapsed=0:00:15.97    \n[libx264 @ 000001e5f57b0300] frame I:2     Avg QP:51.00  size:  5288\n[libx264 @ 000001e5f57b0300] frame P:252   Avg QP:51.00  size:  2304\n[libx264 @ 000001e5f57b0300] frame B:46    Avg QP:51.00  size:   553\n[libx264 @ 000001e5f57b0300] consecutive B-frames: 79.3%  0.7%  0.0% 20.0%\n[libx264 @ 000001e5f57b0300] mb I  I16..4: 59.6% 40.4%  0.0%\n[libx264 @ 000001e5f57b0300] mb P  I16..4: 12.5% 11.6%  0.0%  P16..4:  4.7%  0.1%  1.0%  0.0%  0.0%    skip:70.1%\n[libx264 @ 000001e5f57b0300] mb B  I16..4:  0.0%  0.0%  0.0%  B16..8:  6.6%  0.0%  0.0%  direct: 0.1%  skip:93.3%  L0:43.4% L1:56.1% BI: 0.5%\n[libx264 @ 000001e5f57b0300] 8x8 transform intra:47.8% inter:95.3%\n[libx264 @ 000001e5f57b0300] direct mvs  spatial:87.0% temporal:13.0%\n[libx264 @ 000001e5f57b0300] coded y,uvDC,uvAC intra: 0.5% 14.6% 0.0% inter: 0.0% 0.9% 0.0%\n[libx264 @ 000001e5f57b0300] i16 v,h,dc,p: 82% 16%  1%  1%\n[libx264 @ 000001e5f57b0300] i8 v,h,dc,ddl,ddr,vr,hd,vl,hu:  0%  0% 99%  0%  0%  0%  0%  0%  0%\n[libx264 @ 000001e5f57b0300] i8c dc,h,v,p: 99%  1%  0%  0%\n[libx264 @ 000001e5f57b0300] Weighted P-Frames: Y:3.2% UV:0.4%\n[libx264 @ 000001e5f57b0300] ref P L0: 55.9%  0.4% 13.6%  7.5%  9.5% 12.7%  0.4%\n[libx264 @ 000001e5f57b0300] ref B L0: 82.0%  9.1%  6.9%  2.1%\n[libx264 @ 000001e5f57b0300] ref B L1: 89.5% 10.5%\n[libx264 @ 000001e5f57b0300] kb/s:986.71\n",
  "seconds": 16.407743453979492,
  "probe_out": {}
}